HIERARCHY
ROOT Hips
{
	OFFSET 0.000000 0.000000 0.000000
	CHANNELS 6 Xposition Yposition Zposition Xrotation Yrotation Zrotation
	JOINT LeftUpLeg_virtual
	{
		OFFSET 0.000000 0.000000 0.000000
		CHANNELS 3 Xrotation Yrotation Zrotation
		JOINT LeftUpLeg
		{
			OFFSET 15.427100 -6.655098 0.678600
			CHANNELS 3 Xrotation Yrotation Zrotation
			JOINT LeftLeg
			{
				OFFSET 4.081073 -39.591068 13.024000
				CHANNELS 3 Xrotation Yrotation Zrotation
				JOINT LeftFoot
				{
					OFFSET -4.081074 -37.707932 -15.979700
					CHANNELS 3 Xrotation Yrotation Zrotation
					JOINT LeftToeBase
					{
						OFFSET 5.346399 -15.068900 20.645000
						CHANNELS 3 Xrotation Yrotation Zrotation
						JOINT LeftToe_End
						{
							OFFSET 2.754700 0.931300 11.300900
							CHANNELS 3 Xrotation Yrotation Zrotation
							End Site
							{
								OFFSET 0 0 0
							}
						}
					}
				}
			}
		}
	}
	JOINT RightUpLeg_virtual
	{
		OFFSET 0.000000 0.000000 0.000000
		CHANNELS 3 Xrotation Yrotation Zrotation
		JOINT RightUpLeg
		{
			OFFSET -15.569500 -6.655098 0.678600
			CHANNELS 3 Xrotation Yrotation Zrotation
			JOINT RightLeg
			{
				OFFSET -4.081825 -39.591045 13.023800
				CHANNELS 3 Xrotation Yrotation Zrotation
				JOINT RightFoot
				{
					OFFSET 4.081824 -37.707954 -15.979600
					CHANNELS 3 Xrotation Yrotation Zrotation
					JOINT RightToeBase
					{
						OFFSET -5.346400 -15.068900 20.645000
						CHANNELS 3 Xrotation Yrotation Zrotation
						JOINT RightToe_End
						{
							OFFSET -2.754700 0.931300 11.300900
							CHANNELS 3 Xrotation Yrotation Zrotation
							End Site
							{
								OFFSET 0 0 0
							}
						}
					}
				}
			}
		}
	}
	JOINT Spine_virtual
	{
		OFFSET 0.000000 0.000000 0.000000
		CHANNELS 3 Xrotation Yrotation Zrotation
		JOINT Spine
		{
			OFFSET -0.279200 12.230698 -2.892100
			CHANNELS 3 Xrotation Yrotation Zrotation
			JOINT Spine1
			{
				OFFSET -0.232667 10.192268 -1.242267
				CHANNELS 3 Xrotation Yrotation Zrotation
				JOINT Spine1_split
				{
					OFFSET -0.232667 10.192268 -1.242267
					CHANNELS 3 Xrotation Yrotation Zrotation
					JOINT Spine2
					{
						OFFSET -0.232667 10.192268 -1.242267
						CHANNELS 3 Xrotation Yrotation Zrotation
						JOINT Neck_virtual
						{
							OFFSET 0.000000 0.000000 0.000000
							CHANNELS 3 Xrotation Yrotation Zrotation
							JOINT Neck
							{
								OFFSET -0.418800 17.814194 8.416900
								CHANNELS 3 Xrotation Yrotation Zrotation
								JOINT Head
								{
									OFFSET 0.000000 7.031097 3.806800
									CHANNELS 3 Xrotation Yrotation Zrotation
									JOINT HeadTop_End
									{
										OFFSET 0.000000 24.646606 12.978600
										CHANNELS 3 Xrotation Yrotation Zrotation
										End Site
										{
											OFFSET 0 0 0
										}
									}
								}
							}
						}
						JOINT LeftShoulder_virtual
						{
							OFFSET 0.000000 0.000000 0.000000
							CHANNELS 3 Xrotation Yrotation Zrotation
							JOINT LeftShoulder
							{
								OFFSET 8.476499 7.247704 -3.868750
								CHANNELS 3 Xrotation Yrotation Zrotation
								JOINT LeftShoulder_split
								{
									OFFSET 8.476499 7.247704 -3.868750
									CHANNELS 3 Xrotation Yrotation Zrotation
									JOINT LeftArm
									{
										OFFSET 9.308998 -2.777710 0.208600
										CHANNELS 3 Xrotation Yrotation Zrotation
										JOINT LeftForeArm
										{
											OFFSET 29.972298 0.000000 0.000000
											CHANNELS 3 Xrotation Yrotation Zrotation
											JOINT LeftHand
											{
												OFFSET 26.026505 0.000000 0.000000
												CHANNELS 3 Xrotation Yrotation Zrotation
												End Site
												{
													OFFSET 0 0 0
												}
											}
										}
									}
								}
							}
						}
						JOINT RightShoulder_virtual
						{
							OFFSET 0.000000 0.000000 0.000000
							CHANNELS 3 Xrotation Yrotation Zrotation
							JOINT RightShoulder
							{
								OFFSET -7.570500 7.247704 -3.868750
								CHANNELS 3 Xrotation Yrotation Zrotation
								JOINT RightShoulder_split
								{
									OFFSET -7.570500 7.247704 -3.868750
									CHANNELS 3 Xrotation Yrotation Zrotation
									JOINT RightArm
									{
										OFFSET -9.308998 -2.777710 0.208500
										CHANNELS 3 Xrotation Yrotation Zrotation
										JOINT RightForeArm
										{
											OFFSET -29.972300 0.000000 0.000000
											CHANNELS 3 Xrotation Yrotation Zrotation
											JOINT RightHand
											{
												OFFSET -26.026505 0.000000 0.000000
												CHANNELS 3 Xrotation Yrotation Zrotation
												End Site
												{
													OFFSET 0 0 0
												}
											}
										}
									}
								}
							}
						}
					}
				}
			}
		}
	}
}
MOTION
Frames: 10
Frame Time: 0.03333333
1.027240 96.176544 -2.170734 0.000000 0.000000 0.000000 2.912721 -28.996738 0.976691 -13.772411 18.268900 13.064420 14.396599 11.477544 -1.671314 -2.222315 -2.498157 -7.545467 -0.145183 0.007824 -0.311391 0.000000 0.000000 0.000000 2.912721 -28.996738 0.976691 -8.421045 -1.527485 -8.444220 10.988997 9.456353 0.845430 -5.767807 -0.825209 6.902710 -1.288159 -0.027253 0.150335 0.000000 0.000000 0.000000 2.912721 -28.996738 0.976691 7.837253 -0.327289 -2.470953 1.099251 -0.880529 2.383668 0.000000 0.000000 0.000000 0.000000 0.000000 0.000000 1.108685 -0.590416 2.446527 -3.841327 18.019012 -6.496517 -6.333201 13.021594 0.301390 0.000000 0.000000 0.000000 1.108685 -0.590416 2.446527 -0.055835 -8.758003 -0.067357 0.000000 0.000000 0.000000 -55.250811 0.329437 -41.449382 11.606983 -65.826030 13.026170 0.000000 0.000000 0.000000 1.108685 -0.590416 2.446527 4.849284 7.760134 5.560454 0.000000 0.000000 0.000000 -0.933522 -2.176866 61.845628 11.299285 18.943465 -3.987560 0.000000 0.000000 0.000000 
0.993395 96.167747 -2.138187 0.000000 0.000000 0.000000 3.094925 -29.013250 1.061120 -13.920457 18.213843 13.096048 14.424955 11.477738 -1.680433 -2.247314 -2.478071 -7.573135 -0.145184 0.007825 -0.311392 0.000000 0.000000 0.000000 3.094925 -29.013250 1.061120 -8.588994 -1.536284 -8.425292 11.026500 9.494103 0.835551 -5.797712 -0.808099 6.882292 -1.278725 -0.027698 0.171029 0.000000 0.000000 0.000000 3.094925 -29.013250 1.061120 7.837386 -0.323985 -2.471695 1.098787 -0.869316 2.381754 0.000000 0.000000 0.000000 0.000000 0.000000 0.000000 1.110465 -0.579790 2.444748 -3.800853 18.130558 -6.587805 -6.340685 13.102958 0.312260 0.000000 0.000000 0.000000 1.110465 -0.579790 2.444748 -0.072285 -8.728847 -0.064795 0.000000 0.000000 0.000000 -54.827564 0.180459 -41.050420 11.670562 -66.019106 13.220145 0.000000 0.000000 0.000000 1.110465 -0.579790 2.444748 4.839190 7.844303 5.594992 0.000000 0.000000 0.000000 -0.848534 -2.241859 61.787291 11.331117 18.903918 -3.971959 0.000000 0.000000 0.000000 
0.954636 96.144142 -2.109665 0.000000 0.000000 0.000000 3.291132 -28.997199 1.142012 -14.094372 18.064146 13.140359 14.511451 11.555090 -1.705930 -2.292077 -2.423438 -7.617621 -0.135455 0.007769 -0.311390 0.000000 0.000000 0.000000 3.291132 -28.997199 1.142012 -8.777409 -1.577466 -8.390960 11.104026 9.495232 0.823157 -5.858070 -0.795711 6.859355 -1.277219 -0.028009 0.184446 0.000000 0.000000 0.000000 3.291132 -28.997199 1.142012 7.820900 -0.294369 -2.463994 1.117937 -0.846394 2.364978 0.000000 0.000000 0.000000 0.000000 0.000000 0.000000 1.129928 -0.558666 2.427740 -3.726535 18.293524 -6.716436 -6.418724 13.211867 0.340643 0.000000 0.000000 0.000000 1.129928 -0.558666 2.427740 -0.083039 -8.692240 -0.064193 0.000000 0.000000 0.000000 -54.911873 0.413683 -40.899989 11.726480 -66.225808 13.255866 0.000000 0.000000 0.000000 1.129928 -0.558666 2.427740 4.830473 7.962083 5.611527 0.000000 0.000000 0.000000 -0.812636 -2.366843 61.793220 11.316479 18.639489 -3.971530 0.000000 0.000000 0.000000 
0.910036 96.108505 -2.087856 0.000000 0.000000 0.000000 3.497850 -28.927395 1.215717 -14.309847 17.810108 13.193010 14.637410 11.634424 -1.735394 -2.337491 -2.351008 -7.668796 -0.119777 0.007686 -0.311391 0.000000 0.000000 0.000000 3.497850 -28.927395 1.215717 -8.988533 -1.681692 -8.348273 11.218013 9.502396 0.796832 -5.934560 -0.787086 6.845654 -1.274446 -0.026980 0.139756 0.000000 0.000000 0.000000 3.497850 -28.927395 1.215717 7.803094 -0.247602 -2.453092 1.138350 -0.807843 2.349022 0.000000 0.000000 0.000000 0.000000 0.000000 0.000000 1.150806 -0.522310 2.411884 -3.650573 18.500624 -6.895999 -6.530887 13.361921 0.392013 0.000000 0.000000 0.000000 1.150806 -0.522310 2.411884 -0.084659 -8.656185 -0.065732 0.000000 0.000000 0.000000 -55.018519 0.629087 -40.733196 11.744492 -66.427285 13.255438 0.000000 0.000000 0.000000 1.150806 -0.522310 2.411884 4.818682 8.090141 5.643133 0.000000 0.000000 0.000000 -0.742727 -2.498040 61.818587 11.246327 18.307374 -4.026839 0.000000 0.000000 0.000000 
0.853974 96.059395 -2.072987 0.000000 0.000000 0.000000 3.716907 -28.782397 1.284898 -14.570422 17.472560 13.263298 14.799044 11.711684 -1.790442 -2.379998 -2.282856 -7.716428 -0.098623 0.007569 -0.311393 0.000000 0.000000 0.000000 3.716907 -28.782397 1.284898 -9.214490 -1.882184 -8.316828 11.360892 9.517502 0.797188 -6.043541 -0.772110 6.801057 -1.272093 -0.027749 0.173433 0.000000 0.000000 0.000000 3.716907 -28.782397 1.284898 7.753860 -0.215409 -2.450985 1.172171 -0.773996 2.335616 0.000000 0.000000 0.000000 0.000000 0.000000 0.000000 1.184873 -0.489929 2.398013 -3.515184 18.850491 -7.083039 -6.726406 13.673707 0.398016 0.000000 0.000000 0.000000 1.184873 -0.489929 2.398013 -0.066593 -8.552729 -0.064403 0.000000 0.000000 0.000000 -55.354602 0.872081 -40.806156 11.654637 -66.553233 13.123806 0.000000 0.000000 0.000000 1.184873 -0.489929 2.398013 4.791611 8.346612 5.647614 0.000000 0.000000 0.000000 -0.642226 -2.665545 61.868154 11.192372 17.878678 -4.062221 0.000000 0.000000 0.000000 
0.781247 95.994049 -2.063702 0.000000 0.000000 0.000000 3.944948 -28.536694 1.361480 -14.871079 17.053118 13.332297 14.988871 11.774981 -1.875397 -2.415080 -2.235507 -7.752047 -0.071480 0.007419 -0.311398 0.000000 0.000000 0.000000 3.944948 -28.536694 1.361480 -9.451560 -2.140370 -8.294911 11.562787 9.526029 0.813011 -6.210841 -0.752376 6.725148 -1.271903 -0.027389 0.157612 0.000000 0.000000 0.000000 3.944948 -28.536694 1.361480 7.677547 -0.188816 -2.438912 1.198236 -0.742673 2.317007 0.000000 0.000000 0.000000 0.000000 0.000000 0.000000 1.210364 -0.460885 2.378697 -3.116961 19.501092 -7.500652 -7.174771 14.245227 0.435660 0.000000 0.000000 0.000000 1.210364 -0.460885 2.378697 -0.042203 -8.425463 -0.065379 0.000000 0.000000 0.000000 -55.839897 1.199296 -41.001352 11.550167 -66.676436 12.978563 0.000000 0.000000 0.000000 1.210364 -0.460885 2.378697 4.769779 8.654983 5.546199 0.000000 0.000000 0.000000 -0.515006 -2.889061 62.016642 11.182488 17.375810 -4.055868 0.000000 0.000000 0.000000 
0.689440 95.914124 -2.055832 0.000000 0.000000 0.000000 4.181639 -28.160476 1.459649 -15.203907 16.561928 13.381338 15.186062 11.812495 -1.997334 -2.429424 -2.215405 -7.763312 -0.039615 0.007254 -0.311400 0.000000 0.000000 0.000000 4.181639 -28.160476 1.459649 -9.692649 -2.455908 -8.297828 11.834291 9.519647 0.818219 -6.458058 -0.751863 6.623692 -1.277366 -0.027573 0.165195 0.000000 0.000000 0.000000 4.181639 -28.160476 1.459649 7.592057 -0.152884 -2.413438 1.215885 -0.704546 2.292634 0.000000 0.000000 0.000000 0.000000 0.000000 0.000000 1.226745 -0.426069 2.353582 -2.465277 20.617447 -8.315308 -7.839572 15.130384 0.541317 0.000000 0.000000 0.000000 1.226745 -0.426069 2.353582 -0.014419 -8.280706 -0.066600 0.000000 0.000000 0.000000 -56.409453 1.581261 -41.269902 11.432069 -66.798253 12.820051 0.000000 0.000000 0.000000 1.226745 -0.426069 2.353582 4.729144 8.855320 5.342915 0.000000 0.000000 0.000000 -0.353640 -3.115941 62.300519 11.130236 16.870671 -4.085520 0.000000 0.000000 0.000000 
0.578162 95.822380 -2.045631 0.000000 0.000000 0.000000 4.423088 -27.631262 1.577690 -15.562610 15.976962 13.389919 15.381755 11.835231 -2.135589 -2.417786 -2.220117 -7.761221 -0.003110 0.007051 -0.299231 0.000000 0.000000 0.000000 4.423088 -27.631262 1.577690 -9.917266 -2.865173 -8.339536 12.163779 9.442840 0.816563 -6.771821 -0.808175 6.534856 -1.288629 -0.027084 0.142392 0.000000 0.000000 0.000000 4.423088 -27.631262 1.577690 7.518885 -0.103118 -2.392754 1.235606 -0.653105 2.265097 0.000000 0.000000 0.000000 0.000000 0.000000 0.000000 1.248787 -0.378469 2.325310 -1.769188 22.161640 -9.410373 -8.479799 16.358986 0.627797 0.000000 0.000000 0.000000 1.248787 -0.378469 2.325310 0.013949 -8.124711 -0.067970 0.000000 0.000000 0.000000 -56.998021 1.988508 -41.563730 11.302040 -66.920691 12.649413 0.000000 0.000000 0.000000 1.248787 -0.378469 2.325310 4.736101 8.909329 5.141232 0.000000 0.000000 0.000000 -0.233584 -3.277935 62.544841 11.105322 16.426736 -4.104540 0.000000 0.000000 0.000000 
0.448489 95.720665 -2.030960 0.000000 0.000000 0.000000 4.656765 -26.952456 1.687394 -15.959369 15.343619 13.393239 15.584169 11.805827 -2.305908 -2.386819 -2.283971 -7.721034 0.037267 0.001572 -0.293354 0.000000 0.000000 0.000000 4.656765 -26.952456 1.687394 -10.098816 -3.361318 -8.412118 12.509917 9.348714 0.846549 -7.165424 -0.872821 6.385029 -1.269515 -0.027990 0.184731 0.000000 0.000000 0.000000 4.656765 -26.952456 1.687394 7.414820 -0.029991 -2.362995 1.255410 -0.583838 2.238352 0.000000 0.000000 0.000000 0.000000 0.000000 0.000000 1.268944 -0.313317 2.297869 -0.845313 23.924551 -10.691222 -9.168059 17.841412 0.614861 0.000000 0.000000 0.000000 1.268944 -0.313317 2.297869 0.041374 -7.963344 -0.069380 0.000000 0.000000 0.000000 -57.540935 2.390341 -41.835831 11.161445 -67.046325 12.467434 0.000000 0.000000 0.000000 1.268944 -0.313317 2.297869 4.715360 9.009812 4.956183 0.000000 0.000000 0.000000 0.074619 -3.481887 62.747479 11.085486 16.140852 -4.148391 0.000000 0.000000 0.000000 
0.303091 95.605423 -2.011311 0.000000 0.000000 0.000000 4.869022 -26.153015 1.766106 -16.378777 14.616456 13.405272 15.814367 11.751079 -2.499990 -2.356478 -2.373047 -7.680170 0.080635 -0.017384 -0.266505 0.000000 0.000000 0.000000 4.869022 -26.153015 1.766106 -10.234803 -3.940612 -8.489083 12.876110 9.233051 0.898124 -7.599601 -0.951883 6.233815 -1.265858 -0.028144 0.193373 0.000000 0.000000 0.000000 4.869022 -26.153015 1.766106 7.293999 0.047308 -2.346985 1.278180 -0.503928 2.231467 0.000000 0.000000 0.000000 0.000000 0.000000 0.000000 1.291842 -0.235528 2.289806 0.195219 25.745203 -12.091629 -9.862772 19.422054 0.589683 0.000000 0.000000 0.000000 1.291842 -0.235528 2.289806 0.066706 -7.802155 -0.070785 0.000000 0.000000 0.000000 -57.976374 2.752835 -42.040067 11.012026 -67.177438 12.275311 0.000000 0.000000 0.000000 1.291842 -0.235528 2.289806 4.691532 9.230247 4.810088 0.000000 0.000000 0.000000 0.548446 -3.696777 62.815925 11.127813 16.038324 -4.171652 0.000000 0.000000 0.000000 
